%FSTAX23Y23*%
%MOIN*%
%SFA1B1*%

%IPPOS*%
%ADD37C,0.001970*%
%ADD38C,0.003940*%
%LNwhearstonebridge_mechanical_15-1*%
%LPD*%
G54D37*
X03263Y03276D02*
Y03383D01*
X03196Y03276D02*
Y03383D01*
X03263*
X03196Y03276D02*
X03263D01*
X03081Y03383D02*
X03148D01*
X03081Y03276D02*
X03148D01*
Y03383*
X03081Y03276D02*
Y03383D01*
X03191Y02956D02*
Y03023D01*
X03298Y02956D02*
Y03023D01*
X03191D02*
X03298D01*
X03191Y02956D02*
X03298D01*
X03066D02*
Y03023D01*
X03173Y02956D02*
Y03023D01*
X03066D02*
X03173D01*
X03066Y02956D02*
X03173D01*
X03291Y03277D02*
X03358D01*
X03291Y03383D02*
X03358D01*
X03291Y03277D02*
Y03383D01*
X03358Y03277D02*
Y03383D01*
X0332Y03118D02*
Y03271D01*
X03399Y03118D02*
Y03271D01*
X0332Y03118D02*
X03399D01*
X0332Y03271D02*
X03399D01*
G54D38*
X0321Y0333D02*
X03249D01*
X0323Y0331D02*
Y03349D01*
X03115Y0331D02*
Y03349D01*
X03095Y0333D02*
X03134D01*
X03225Y0299D02*
X03264D01*
X03245Y0297D02*
Y03009D01*
X031Y0299D02*
X03139D01*
X0312Y0297D02*
Y03009D01*
X03325Y0331D02*
Y0335D01*
X03305Y0333D02*
X03344D01*
X0334Y03195D02*
X03379D01*
X0336Y03175D02*
Y03214D01*
M02*