%FSTAX23Y23*%
%MOIN*%
%SFA1B1*%

%IPPOS*%
%ADD11C,0.007870*%
%ADD38C,0.003940*%
%LNwhearstonebridge_top_3d_body-1*%
%LPD*%
G54D11*
X03223Y03045D02*
X03302D01*
X03223D02*
Y03094D01*
X03302*
Y03045D02*
Y03094D01*
X03095Y0314D02*
Y03259D01*
Y0314D02*
X03214D01*
Y03259*
X03095D02*
X03214D01*
X03084Y0305D02*
Y03089D01*
Y0305D02*
X03155D01*
Y03089*
X03084D02*
X03155D01*
G54D38*
X03258Y03286D02*
Y03373D01*
X03201Y03286D02*
Y03373D01*
X03258*
X03201Y03286D02*
X03258D01*
X03086Y03373D02*
X03143D01*
X03086Y03286D02*
X03143D01*
Y03373*
X03086Y03286D02*
Y03373D01*
X03201Y02961D02*
Y03018D01*
X03288Y02961D02*
Y03018D01*
X03201D02*
X03288D01*
X03201Y02961D02*
X03288D01*
X03076D02*
Y03018D01*
X03163Y02961D02*
Y03018D01*
X03076D02*
X03163D01*
X03076Y02961D02*
X03163D01*
X03058Y03511D02*
X03078Y03509D01*
X03058Y03489D02*
X03078Y03491D01*
X03058Y03489D02*
Y03511D01*
X03078Y03466D02*
X03353D01*
Y0369D02*
Y03741D01*
X03078D02*
X03353D01*
X03078Y03466D02*
Y03491D01*
Y03509D02*
Y03741D01*
X03373Y03662D02*
Y03693D01*
X03353Y0369D02*
X03373Y03693D01*
X03353Y03466D02*
Y03664D01*
X03353Y03664D02*
X03373Y03662D01*
X03296Y03287D02*
X03353D01*
X03296Y03373D02*
X03353D01*
X03296Y03287D02*
Y03373D01*
X03353Y03287D02*
Y03373D01*
X03324Y03128D02*
Y03261D01*
X03395Y03128D02*
Y03261D01*
X03324Y03128D02*
X03395D01*
X03324Y03261D02*
X03395D01*
M02*